<?xml version="1.0" standalone="no"?>
<!DOCTYPE svg PUBLIC "-//W3C//DTD SVG 20010904//EN"
 "http://www.w3.org/TR/2001/REC-SVG-20010904/DTD/svg10.dtd">
<svg version="1.0" xmlns="http://www.w3.org/2000/svg"
 width="300.000000pt" height="300.000000pt" viewBox="0 0 300.000000 300.000000"
 preserveAspectRatio="xMidYMid meet">
<metadata>
Created by potrace 1.14, written by Peter Selinger 2001-2017
</metadata>
<g transform="translate(0.000000,300.000000) scale(0.100000,-0.100000)"
fill="#000000" stroke="none">
<path d="M0 1500 l0 -1500 1500 0 1500 0 0 1500 0 1500 -1500 0 -1500 0 0
-1500z m1215 1250 c3 -5 1 -10 -4 -10 -6 0 -11 5 -11 10 0 6 2 10 4 10 3 0 8
-4 11 -10z m-127 -64 c-10 -7 -18 -22 -18 -32 0 -11 -9 -27 -20 -37 -26 -22
-25 -4 2 44 12 22 29 39 37 39 14 -1 13 -3 -1 -14z m562 -71 c0 -8 -7 -15 -15
-15 -8 0 -15 7 -15 15 0 8 7 15 15 15 8 0 15 -7 15 -15z m310 -50 c-32 -18
-41 -18 -34 0 4 8 18 15 33 15 l26 -1 -25 -14z m70 5 c0 -5 -4 -10 -9 -10 -6
0 -13 5 -16 10 -3 6 1 10 9 10 9 0 16 -4 16 -10z m-400 -26 c0 -3 -10 -14 -22
-23 -35 -29 -14 -39 75 -39 144 -1 133 3 150 -44 24 -68 28 -93 28 -201 l0
-102 -33 -27 c-18 -15 -40 -28 -49 -28 -9 0 -22 -7 -29 -15 -7 -9 -19 -14 -27
-11 -7 3 -13 0 -13 -7 0 -14 -82 -41 -119 -39 -56 3 -46 52 10 52 l29 0 0 111
c0 95 -2 110 -15 105 -11 -4 -15 2 -15 22 0 16 -5 33 -11 39 -7 7 -2 15 15 27
33 21 33 32 -4 63 -34 28 -37 50 -15 93 13 26 45 42 45 24z m-185 -44 c-6 -9
2 -12 50 -14 17 -1 21 -9 23 -50 2 -28 -3 -68 -12 -90 -8 -23 -17 -79 -21
-126 -8 -114 -19 -140 -57 -140 -33 0 -76 20 -100 46 -26 30 -32 104 -14 166
8 29 18 83 22 121 6 62 9 68 33 73 14 3 35 9 46 14 27 12 37 12 30 0z m132
-309 c-5 -42 -39 -92 -53 -78 -4 4 -7 30 -6 57 1 37 7 58 24 79 22 27 23 27
31 7 5 -12 7 -41 4 -65z m5 -227 c29 -18 -9 -63 -53 -64 -35 0 -52 21 -43 55
6 25 9 27 47 21 22 -4 44 -9 49 -12z m-348 -195 c8 -48 -11 -102 -32 -94 -8 3
-17 5 -21 5 -9 0 -41 66 -41 84 0 8 14 26 31 40 38 32 54 23 63 -35z m-194
-19 c3 -5 16 -10 30 -11 56 -8 25 -92 -37 -101 -37 -5 -43 7 -43 85 0 46 1 48
23 41 12 -4 24 -10 27 -14z m518 -32 c7 -7 12 -25 12 -41 0 -22 -4 -28 -16
-23 -9 3 -20 6 -25 6 -5 0 -9 16 -9 35 0 36 15 46 38 23z m102 -43 c0 -37 -22
-49 -34 -19 -9 23 2 54 20 54 9 0 14 -11 14 -35z m60 -16 c0 -52 -24 -48 -28
4 -2 28 1 37 12 37 12 0 16 -11 16 -41z m-350 -96 c24 -55 25 -86 4 -108 -16
-15 -18 -14 -38 22 -15 27 -29 39 -49 41 -24 3 -56 37 -45 48 13 12 94 51 100
47 4 -2 17 -24 28 -50z m325 17 c3 -6 3 -19 0 -30 -9 -28 -65 -28 -65 0 0 29
51 53 65 30z m15 -80 c0 -5 -5 -10 -11 -10 -5 0 -7 5 -4 10 3 6 8 10 11 10 2
0 4 -4 4 -10z m-1160 -335 c0 -26 -14 -33 -25 -15 -9 14 1 40 15 40 5 0 10
-11 10 -25z m1980 -15 c0 -5 -4 -10 -10 -10 -5 0 -10 5 -10 10 0 6 5 10 10 10
6 0 10 -4 10 -10z m-1890 -76 c0 -26 -17 -33 -26 -9 -8 20 3 48 16 40 5 -3 10
-17 10 -31z m1370 -31 c0 -27 15 -30 29 -6 8 16 11 15 34 -8 15 -14 27 -39 29
-59 2 -27 8 -36 28 -40 15 -4 24 -12 22 -21 -1 -9 11 -28 28 -44 25 -24 30
-36 30 -78 0 -30 -6 -54 -15 -63 -22 -23 -18 -58 10 -88 28 -30 35 -32 35 -11
0 8 6 15 14 15 8 0 16 7 20 15 3 10 19 15 46 15 28 0 40 4 40 14 0 9 12 16 28
18 25 3 27 6 30 56 2 35 8 55 18 59 19 7 18 32 -3 55 -15 17 -15 20 15 47 18
15 32 35 32 44 0 15 33 57 45 57 13 0 3 -29 -12 -34 -11 -5 -13 -10 -6 -17 14
-14 50 20 55 52 2 12 9 24 16 27 8 2 12 -10 12 -42 0 -34 -4 -46 -15 -46 -12
0 -15 -16 -15 -84 l0 -84 40 -4 c29 -2 44 1 55 14 18 21 44 23 51 4 3 -8 19
-16 35 -20 17 -3 28 -10 24 -16 -10 -15 -52 -12 -59 5 -6 16 -56 21 -56 6 0
-5 7 -14 15 -21 8 -7 12 -16 9 -21 -8 -14 -40 -11 -54 6 -16 19 -30 10 -30
-20 0 -12 -7 -25 -15 -29 -9 -3 -15 -19 -15 -41 0 -22 6 -38 15 -41 10 -4 15
-20 15 -45 0 -26 5 -42 15 -45 10 -4 15 -20 15 -44 0 -24 5 -40 15 -44 8 -3
15 -16 15 -30 0 -13 6 -26 14 -29 8 -3 16 -22 18 -44 3 -37 4 -38 46 -41 48
-4 54 -25 9 -30 -21 -3 -27 -9 -27 -28 0 -31 -17 -31 -46 1 -26 28 -74 34 -74
10 0 -8 7 -15 15 -15 9 0 15 -9 15 -25 0 -14 7 -28 15 -31 8 -4 15 -10 15 -15
0 -5 -7 -9 -15 -9 -8 0 -15 7 -15 15 0 8 -7 15 -15 15 -8 0 -15 9 -15 20 0 31
-36 60 -74 60 -21 0 -36 6 -40 15 -8 21 -111 21 -120 0 -4 -12 -28 -15 -130
-15 -101 0 -125 -3 -130 -15 -3 -10 -19 -15 -46 -15 -29 0 -40 -4 -40 -15 0
-10 10 -15 28 -15 39 -1 64 -39 60 -92 -3 -45 -28 -67 -28 -25 0 14 -7 27 -15
31 -8 3 -15 16 -15 28 0 27 -32 58 -60 58 -10 0 -44 -25 -75 -55 -31 -30 -59
-55 -61 -55 -11 0 -1 21 21 41 31 30 32 49 2 49 -13 0 -34 11 -47 25 -21 23
-31 25 -107 25 -67 0 -83 -3 -83 -15 0 -11 -11 -15 -39 -15 -22 0 -43 -4 -46
-10 -3 -5 -17 -10 -30 -10 -13 0 -27 5 -30 10 -3 6 -14 10 -24 10 -10 0 -24 7
-31 15 -8 10 -30 15 -61 15 -35 0 -51 5 -58 17 -9 16 -13 15 -44 -15 -37 -36
-47 -31 -47 28 0 16 -7 30 -15 34 -8 3 -15 17 -15 31 0 23 -4 25 -40 25 -36 0
-40 -2 -40 -25 0 -14 -7 -28 -15 -31 -8 -4 -15 -16 -15 -28 0 -34 -10 -38 -36
-13 -27 25 -31 62 -8 71 8 3 12 10 9 16 -9 15 -41 12 -55 -5 -17 -20 -69 -19
-92 2 -17 15 -18 14 -24 -15 -9 -45 -22 -40 -26 11 l-3 42 -115 0 -115 0 -3
-60 c-1 -33 -5 -67 -8 -75 -9 -26 -24 11 -24 63 0 26 -3 47 -8 47 -4 0 -20
-14 -35 -31 -14 -17 -31 -27 -37 -24 -7 4 -10 34 -9 73 2 43 -2 67 -9 70 -15
5 -17 202 -2 202 6 0 10 7 10 15 0 8 -4 15 -9 15 -5 0 -11 14 -15 30 -5 29 -8
30 -55 30 -37 0 -53 -5 -60 -17 -10 -17 -12 -17 -25 0 -16 21 -55 22 -62 2 -8
-19 -54 -20 -54 -1 0 8 5 16 12 18 17 6 0 28 -23 28 -10 0 -19 4 -19 9 0 12
37 24 50 16 5 -3 17 3 27 15 12 13 30 20 54 20 24 0 39 5 43 15 4 11 22 15 70
15 59 0 65 2 68 23 2 18 11 23 43 27 38 5 40 7 45 44 8 64 30 58 30 -8 0 -43
3 -56 15 -56 8 0 15 5 15 10 0 6 29 10 67 10 49 0 71 -5 85 -17 16 -14 22 -15
36 -5 17 12 30 18 57 27 17 5 21 55 5 55 -5 0 -10 7 -10 15 0 8 5 15 10 15 6
0 10 -7 10 -15 0 -8 7 -15 15 -15 8 0 15 7 15 15 0 27 29 16 32 -12 3 -25 7
-28 46 -31 33 -2 42 0 42 12 0 18 15 21 25 7 3 -6 -3 -14 -12 -20 -23 -12 -5
-35 23 -29 14 2 20 14 22 46 3 37 6 42 28 42 13 0 27 7 30 15 4 8 16 15 29 15
13 0 25 7 29 15 14 37 81 1 88 -47 2 -17 10 -24 31 -26 15 -2 27 -9 27 -18 0
-19 49 -18 56 1 4 8 10 15 15 15 13 0 11 -28 -3 -32 -17 -6 0 -28 23 -28 17 0
25 17 20 44 -5 24 12 46 35 46 14 0 27 7 30 15 4 8 16 15 29 15 13 0 25 7 29
15 13 35 79 -2 88 -50 2 -13 12 -21 31 -23 15 -2 27 -9 27 -18 0 -8 10 -14 23
-14 26 0 70 -40 65 -60 -2 -7 2 -14 9 -17 6 -2 13 6 15 18 4 33 28 36 28 5 0
-16 6 -26 15 -26 9 0 15 -9 15 -22 0 -12 15 -37 33 -56 29 -30 30 -34 14 -43
-9 -6 -15 -14 -12 -20 9 -14 25 -11 25 6 0 20 17 19 28 -1 19 -34 32 -3 32 76
0 60 3 79 15 84 8 3 15 16 15 30 0 19 -6 25 -27 28 -25 3 -28 8 -31 43 -2 22
-10 44 -18 48 -8 4 -14 19 -14 32 0 16 -6 25 -15 25 -15 0 -20 12 -9 23 11 11
54 -37 54 -60z m200 52 c0 -8 -4 -15 -10 -15 -5 0 -10 7 -10 15 0 8 5 15 10
15 6 0 10 -7 10 -15z m-1310 -66 c0 -5 -4 -9 -10 -9 -5 0 -10 7 -10 16 0 8 5
12 10 9 6 -3 10 -10 10 -16z m1280 -9 c0 -16 -4 -30 -9 -30 -12 0 -24 37 -16
50 12 20 25 10 25 -20z m-1630 -46 c0 -32 -4 -44 -12 -42 -14 5 -23 51 -14 74
11 30 26 12 26 -32z m464 25 c-3 -5 -10 -7 -15 -3 -5 3 -7 10 -3 15 3 5 10 7
15 3 5 -3 7 -10 3 -15z m1256 -9 c0 -10 -5 -22 -10 -25 -13 -8 -24 20 -16 41
8 20 26 9 26 -16z m-1400 -45 c0 -9 -9 -15 -25 -15 -16 0 -25 6 -25 15 0 9 9
15 25 15 16 0 25 -6 25 -15z m1370 -40 c0 -26 -14 -33 -25 -15 -9 14 1 40 15
40 5 0 10 -11 10 -25z m698 13 c-3 -7 -17 -14 -31 -16 -15 -2 -27 -10 -27 -18
0 -8 -4 -14 -10 -14 -15 0 -12 17 7 40 19 22 67 28 61 8z m-118 -58 c0 -5 -4
-10 -10 -10 -5 0 -10 5 -10 10 0 6 5 10 10 10 6 0 10 -4 10 -10z m-50 -30 c0
-5 -7 -10 -15 -10 -8 0 -15 5 -15 10 0 6 7 10 15 10 8 0 15 -4 15 -10z m-2664
-97 c-10 -10 -19 5 -10 18 6 11 8 11 12 0 2 -7 1 -15 -2 -18z m2164 6 c0 -5
-7 -9 -15 -9 -11 0 -15 -12 -15 -46 0 -54 -23 -58 -28 -5 -3 24 3 39 20 55 23
22 38 24 38 5z m-1830 -229 c0 -24 -110 -26 -118 -2 -3 9 13 12 57 12 34 0 61
-4 61 -10z m314 -181 c-3 -5 -10 -7 -15 -3 -5 3 -7 10 -3 15 3 5 10 7 15 3 5
-3 7 -10 3 -15z m-2 -54 c0 -5 -5 -11 -11 -13 -6 -2 -11 4 -11 13 0 9 5 15 11
13 6 -2 11 -8 11 -13z m236 -56 c-2 -6 -8 -10 -13 -10 -5 0 -11 4 -13 10 -2 6
4 11 13 11 9 0 15 -5 13 -11z m1542 -14 c0 -14 -4 -25 -10 -25 -5 0 -10 11
-10 25 0 14 5 25 10 25 6 0 10 -11 10 -25z m-1980 -15 c0 -5 -11 -10 -25 -10
-14 0 -25 5 -25 10 0 6 11 10 25 10 14 0 25 -4 25 -10z m500 0 c0 -5 -7 -10
-15 -10 -8 0 -15 -7 -15 -15 0 -8 -7 -15 -15 -15 -20 0 -19 9 3 31 19 20 42
25 42 9z m640 0 c0 -5 11 -10 24 -10 27 0 42 -25 20 -34 -23 -9 -16 -26 12
-26 16 0 36 12 54 32 16 17 33 28 37 24 4 -4 0 -13 -10 -20 -9 -7 -17 -18 -17
-25 0 -6 -6 -11 -14 -11 -8 0 -16 -7 -20 -15 -3 -8 -14 -15 -24 -15 -11 0 -25
-7 -32 -15 -14 -17 -30 -11 -30 11 0 8 -13 28 -30 44 -16 16 -30 38 -30 50 0
16 7 20 30 20 17 0 30 -4 30 -10z m-730 -31 c0 -5 -7 -9 -15 -9 -15 0 -20 12
-9 23 8 8 24 -1 24 -14z m320 0 c0 -5 -7 -9 -15 -9 -15 0 -20 12 -9 23 8 8 24
-1 24 -14z m-640 -14 c0 -16 -6 -25 -15 -25 -15 0 -21 31 -8 43 13 14 23 6 23
-18z m960 15 c0 -5 -7 -10 -15 -10 -8 0 -15 5 -15 10 0 6 7 10 15 10 8 0 15
-4 15 -10z m380 0 c0 -5 -7 -10 -15 -10 -8 0 -15 5 -15 10 0 6 7 10 15 10 8 0
15 -4 15 -10z m760 0 c0 -5 -7 -10 -15 -10 -8 0 -15 5 -15 10 0 6 7 10 15 10
8 0 15 -4 15 -10z m-180 -30 c0 -5 -4 -10 -9 -10 -6 0 -13 5 -16 10 -3 6 1 10
9 10 9 0 16 -4 16 -10z m-900 -25 c0 -8 -7 -15 -15 -15 -16 0 -20 12 -8 23 11
12 23 8 23 -8z m-730 -5 c0 -5 -4 -10 -9 -10 -6 0 -13 5 -16 10 -3 6 1 10 9
10 9 0 16 -4 16 -10z m1688 -27 c2 -8 -6 -13 -22 -13 -26 0 -40 12 -29 24 11
11 46 2 51 -11z m147 -3 c-3 -5 -10 -10 -16 -10 -5 0 -9 5 -9 10 0 6 7 10 16
10 8 0 12 -4 9 -10z m-1195 -25 c0 -8 -4 -15 -10 -15 -5 0 -10 7 -10 15 0 8 5
15 10 15 6 0 10 -7 10 -15z"/>
<path d="M1113 867 c-3 -5 6 -21 20 -35 14 -15 28 -37 32 -49 4 -16 14 -23 31
-23 22 0 24 3 24 55 0 50 -2 55 -22 56 -13 0 -36 2 -51 3 -16 1 -31 -2 -34 -7z"/>
<path d="M1533 872 c-10 -6 -8 -17 6 -45 42 -83 61 -87 61 -13 0 47 -3 54 -22
60 -29 7 -30 7 -45 -2z"/>
<path d="M1460 860 c0 -5 5 -10 10 -10 6 0 10 5 10 10 0 6 -4 10 -10 10 -5 0
-10 -4 -10 -10z"/>
<path d="M1317 843 c-4 -3 -7 -35 -7 -71 0 -50 4 -68 18 -78 16 -13 16 -15 0
-25 -16 -9 -18 -26 -18 -129 0 -107 2 -122 20 -140 24 -24 40 -26 40 -5 0 10
10 15 30 15 33 0 39 14 13 29 -21 11 -10 27 22 33 18 3 20 12 21 112 0 81 -3
109 -13 113 -7 3 -13 20 -13 38 0 52 -87 135 -113 108z m77 -241 c6 -10 -39
-53 -48 -45 -11 11 -6 23 9 23 8 0 15 7 15 15 0 16 15 20 24 7z"/>
<path d="M1697 843 c-4 -3 -7 -100 -7 -215 0 -200 1 -209 22 -230 19 -19 22
-20 33 -5 7 10 24 17 39 17 22 0 26 4 26 29 0 16 6 31 14 34 21 8 22 200 1
221 -8 8 -15 28 -15 45 0 50 -87 130 -113 104z m76 -388 c-3 -13 -53 -20 -53
-7 0 15 13 23 35 20 11 -2 19 -7 18 -13z"/>
<path d="M930 830 c0 -5 -8 -10 -18 -10 -25 0 -92 -66 -92 -91 0 -11 -7 -22
-15 -25 -8 -4 -15 -12 -15 -20 0 -19 49 -18 56 1 4 11 21 15 59 15 38 0 55 4
59 15 4 11 22 15 68 15 54 0 66 4 87 25 18 20 20 25 7 25 -9 0 -16 -4 -16 -10
0 -16 -27 -12 -34 5 -3 8 -16 15 -30 15 -13 0 -26 7 -30 15 -3 8 -17 15 -31
15 -14 0 -25 5 -25 10 0 6 -7 10 -15 10 -8 0 -15 -4 -15 -10z"/>
<path d="M640 770 c0 -5 7 -10 15 -10 8 0 15 5 15 10 0 6 -7 10 -15 10 -8 0
-15 -4 -15 -10z"/>
<path d="M632 707 c-23 -25 -29 -52 -12 -62 6 -3 13 1 16 9 8 21 34 21 34 0 0
-9 6 -14 13 -11 7 2 12 20 12 43 0 32 -4 40 -20 42 -12 2 -30 -8 -43 -21z"/>
<path d="M1577 724 c-8 -8 1 -24 14 -24 5 0 9 7 9 15 0 15 -12 20 -23 9z"/>
<path d="M1986 661 c-4 -5 -2 -12 3 -15 5 -4 12 -2 15 3 4 5 2 12 -3 15 -5 4
-12 2 -15 -3z"/>
<path d="M1077 626 c-5 -12 -20 -16 -55 -16 -32 0 -54 -5 -62 -15 -9 -10 -32
-15 -76 -15 -62 0 -64 -1 -64 -25 0 -15 11 -36 28 -51 18 -17 23 -27 15 -31
-15 -5 -18 -33 -4 -33 5 0 11 7 15 15 4 11 22 15 76 15 40 0 70 4 70 10 0 6 9
10 20 10 11 0 38 18 61 41 33 33 40 46 37 72 -2 26 -8 33 -29 35 -17 2 -29 -3
-32 -12z"/>
<path d="M1164 625 c-8 -20 13 -45 37 -45 14 0 19 7 19 30 0 25 -4 30 -25 30
-14 0 -28 -7 -31 -15z"/>
<path d="M2390 618 c0 -14 -12 -34 -30 -48 -16 -14 -29 -33 -30 -43 0 -10 -31
-49 -70 -86 -38 -38 -70 -73 -70 -80 0 -16 65 -14 80 4 7 9 35 15 78 17 l67 3
0 124 c0 91 -3 125 -12 129 -8 2 -13 -6 -13 -20z"/>
<path d="M617 603 c-4 -3 -7 -42 -7 -85 0 -63 3 -78 15 -78 8 0 15 5 15 10 0
6 7 10 15 10 8 0 15 -4 15 -10 0 -5 -7 -10 -15 -10 -8 0 -15 -7 -15 -15 0 -11
13 -15 53 -15 30 0 57 3 60 6 8 8 -60 74 -76 74 -7 0 -19 5 -27 10 -13 8 -12
11 5 24 20 15 20 15 0 30 -19 15 -19 17 -2 27 9 5 17 14 17 19 0 11 -43 14
-53 3z"/>
<path d="M1575 600 c-3 -5 1 -10 9 -10 9 0 16 5 16 10 0 6 -4 10 -9 10 -6 0
-13 -4 -16 -10z"/>
<path d="M1958 604 c-9 -8 34 -54 44 -48 12 8 10 24 -3 24 -7 0 -17 7 -23 16
-6 8 -15 12 -18 8z"/>
<path d="M2300 565 c0 -8 -7 -15 -15 -15 -8 0 -15 -7 -15 -15 0 -8 -5 -15 -10
-15 -6 0 -13 7 -16 15 -4 8 -16 15 -28 15 -25 0 -72 -45 -56 -55 5 -3 13 1 16
9 7 18 34 22 34 6 0 -5 -4 -10 -9 -10 -13 0 -22 -43 -11 -54 7 -7 30 10 65 47
31 31 60 57 65 57 6 0 10 7 10 15 0 8 -7 15 -15 15 -8 0 -15 -7 -15 -15z"/>
<path d="M2100 511 c0 -6 5 -13 10 -16 6 -3 10 1 10 9 0 9 -4 16 -10 16 -5 0
-10 -4 -10 -9z"/>
<path d="M2010 484 c0 -4 7 -12 17 -19 15 -11 14 -14 -5 -33 -11 -11 -31 -22
-44 -24 -32 -4 -29 -22 5 -26 19 -2 27 1 27 12 0 9 7 16 15 16 8 0 15 7 15 15
0 8 7 15 15 15 9 0 15 9 15 25 0 21 -5 25 -30 25 -16 0 -30 -3 -30 -6z"/>
<path d="M2130 480 c0 -5 5 -10 10 -10 6 0 10 5 10 10 0 6 -4 10 -10 10 -5 0
-10 -4 -10 -10z"/>
<path d="M937 403 c-12 -11 -8 -23 8 -23 8 0 15 7 15 15 0 16 -12 20 -23 8z"/>
<path d="M1549 313 c0 -5 -2 -21 -4 -37 -6 -41 2 -49 30 -29 15 11 24 28 25
46 0 22 -4 27 -25 27 -14 0 -25 -3 -26 -7z"/>
<path d="M1460 253 c1 -21 41 -54 62 -51 32 4 25 22 -12 28 -17 3 -30 9 -30
15 1 5 -3 11 -9 13 -6 2 -11 0 -11 -5z"/>
</g>
</svg>
